<?xml version="1.0" encoding="utf-8"?>
<!DOCTYPE svg PUBLIC "-//W3C//DTD SVG 1.1//EN" "http://www.w3.org/Graphics/SVG/1.1/DTD/svg11.dtd">
<svg version="1.1" style='fill: #d7d7ef' xmlns="http://www.w3.org/2000/svg" xmlns:xlink="http://www.w3.org/1999/xlink" x="0px" y="0px" viewBox="0 0 1000 1000" enable-background="new 0 0 1000 1000" xml:space="preserve">
<metadata> Svg Vector Icons : http://www.onlinewebfonts.com/icon </metadata>
<g><g transform="translate(0.000000,511.000000) scale(0.100000,-0.100000)"><path d="M4766.8,4952.6c-126.3-63.2-213.8-170.1-252.7-306.1c-14.6-48.6-24.3-682.7-24.3-1581.7V1563.3h-493.2c-544.2,0-595.2-12.1-568.5-128.8c9.7-36.4,313.4-352.3,784.8-816.3L4983-134.9l765.3,745.9c420.3,410.6,772.6,772.6,784.7,804.2c17,43.7,12.1,68-17,102.1c-38.9,41.3-85,46.1-549.1,46.1h-505.4v1542.8c0,1469.9-2.4,1550.1-46.2,1635.1C5286.7,4991.5,5019.5,5079,4766.8,4952.6z"/><path d="M340.1-2474.6l7.3-1756.6l60.7-121.5c75.3-155.5,223.5-301.3,376.6-379l121.5-58.3H5000h4093.8l121.5,60.7c155.5,75.3,301.3,221.1,376.6,376.6l60.7,121.5l7.3,1756.6l7.2,1754.2H8114.8H6564.7l-24.3-167.6c-75.3-476.2-439.7-865-901.4-962.1c-226-48.6-1052-48.6-1278,0c-461.6,97.2-826.1,485.9-901.4,962.1l-24.3,167.6H1885.3H332.8L340.1-2474.6z"/></g></g>
</svg>